<svg width="15" height="15" viewBox="0 0 15 15" fill="none" xmlns="http://www.w3.org/2000/svg">
<path fill-rule="evenodd" clip-rule="evenodd" d="M4.93173 5.43179C4.75599 5.60753 4.75599 5.89245 4.93173 6.06819C5.10747 6.24392 5.39239 6.24392 5.56813 6.06819L7.49993 4.13638L9.43173 6.06819C9.60747 6.24392 9.89239 6.24392 10.0681 6.06819C10.2438 5.89245 10.2438 5.60753 10.0681 5.43179L7.81813 3.18179C7.73373 3.0974 7.61927 3.04999 7.49993 3.04999C7.38058 3.04999 7.26612 3.0974 7.18173 3.18179L4.93173 5.43179ZM10.0681 9.56819C10.2438 9.39245 10.2438 9.10753 10.0681 8.93179C9.89239 8.75606 9.60747 8.75606 9.43173 8.93179L7.49993 10.8636L5.56813 8.93179C5.39239 8.75606 5.10747 8.75606 4.93173 8.93179C4.75599 9.10753 4.75599 9.39245 4.93173 9.56819L7.18173 11.8182C7.35747 11.9939 7.64239 11.9939 7.81813 11.8182L10.0681 9.56819Z" fill="#F9FCFB"/>
</svg>
