<svg width="20" height="20" viewBox="0 0 20 20" fill="none" xmlns="http://www.w3.org/2000/svg">
<g clip-path="url(#clip0_2005_2)">
<path d="M10 0.416656C4.475 0.416656 0 4.81666 0 10.2433C0 14.5858 2.865 18.2683 6.8375 19.5667C7.3375 19.6592 7.52083 19.355 7.52083 19.0942C7.52083 18.8608 7.5125 18.2425 7.50833 17.4233C4.72667 18.0158 4.14 16.105 4.14 16.105C3.685 14.9708 3.0275 14.6675 3.0275 14.6675C2.12167 14.0583 3.0975 14.0708 3.0975 14.0708C4.10167 14.1392 4.62917 15.0833 4.62917 15.0833C5.52083 16.5858 6.97 16.1517 7.54167 15.9008C7.63167 15.265 7.88917 14.8325 8.175 14.5867C5.95417 14.3408 3.62 13.4958 3.62 9.73082C3.62 8.65832 4.0075 7.78166 4.64917 7.09416C4.53667 6.84582 4.19917 5.84666 4.73667 4.49332C4.73667 4.49332 5.57417 4.22999 7.48667 5.50082C8.28667 5.28249 9.13667 5.17416 9.98667 5.16916C10.8367 5.17416 11.6867 5.28249 12.4867 5.50082C14.3867 4.22999 15.2242 4.49332 15.2242 4.49332C15.7617 5.84666 15.4242 6.84582 15.3242 7.09416C15.9617 7.78166 16.3492 8.65832 16.3492 9.73082C16.3492 13.5058 14.0117 14.3367 11.7867 14.5783C12.1367 14.8733 12.4617 15.4758 12.4617 16.3967C12.4617 17.7117 12.4492 18.7683 12.4492 19.0875C12.4492 19.345 12.6242 19.6525 13.1367 19.5542C17.1375 18.2642 20 14.5792 20 10.2433C20 4.81666 15.5225 0.416656 10 0.416656Z" fill="#F9FCFB"/>
</g>
<defs>
<clipPath id="clip0_2005_2">
<rect width="20" height="20" fill="white"/>
</clipPath>
</defs>
</svg>
