<svg width="21" height="20" viewBox="0 0 21 20" fill="none" xmlns="http://www.w3.org/2000/svg">
<path fill-rule="evenodd" clip-rule="evenodd" d="M2.94813 4C2.57888 4 2.27954 4.29848 2.27954 4.66667C2.27954 5.03485 2.57888 5.33333 2.94813 5.33333H10.9712H18.9942C19.3634 5.33333 19.6628 5.03485 19.6628 4.66667C19.6628 4.29848 19.3634 4 18.9942 4H2.94813ZM2.27954 10C2.27954 9.63181 2.57888 9.33333 2.94813 9.33333H18.9942C19.3634 9.33333 19.6628 9.63181 19.6628 10C19.6628 10.3682 19.3634 10.6667 18.9942 10.6667H2.94813C2.57888 10.6667 2.27954 10.3682 2.27954 10ZM2.27954 15.3333C2.27954 14.9652 2.57888 14.6667 2.94813 14.6667H18.9942C19.3634 14.6667 19.6628 14.9652 19.6628 15.3333C19.6628 15.7015 19.3634 16 18.9942 16H2.94813C2.57888 16 2.27954 15.7015 2.27954 15.3333Z" fill="#33966B"/>
</svg>
