<svg viewBox="0 0 20 20" fill="none" xmlns="http://www.w3.org/2000/svg">
<g clip-path="url(#clip0_2003_37)">
<path fill-rule="evenodd" clip-rule="evenodd" d="M10 0C10.3682 0 10.6667 0.298477 10.6667 0.666667V3.33333C10.6667 3.70152 10.3682 4 10 4C9.63181 4 9.33333 3.70152 9.33333 3.33333V0.666667C9.33333 0.298477 9.63181 0 10 0ZM2.92893 2.92893C3.18928 2.66859 3.61139 2.66859 3.87175 2.92893L5.75736 4.81455C6.01771 5.07489 6.01771 5.49701 5.75736 5.75736C5.49701 6.01771 5.07489 6.01771 4.81455 5.75736L2.92893 3.87175C2.66859 3.61139 2.66859 3.18928 2.92893 2.92893ZM0.666667 9.33333C0.298477 9.33333 0 9.63181 0 10C0 10.3682 0.298477 10.6667 0.666667 10.6667H3.33333C3.70152 10.6667 4 10.3682 4 10C4 9.63181 3.70152 9.33333 3.33333 9.33333H0.666667ZM2.92893 17.0711C2.66859 16.8107 2.66859 16.3887 2.92893 16.1283L4.81455 14.2427C5.07489 13.9823 5.49701 13.9823 5.75736 14.2427C6.01771 14.5029 6.01771 14.9251 5.75736 15.1855L3.87175 17.0711C3.61139 17.3315 3.18928 17.3315 2.92893 17.0711ZM16.6667 9.33333C16.2985 9.33333 16 9.63181 16 10C16 10.3682 16.2985 10.6667 16.6667 10.6667H19.3333C19.7015 10.6667 20 10.3682 20 10C20 9.63181 19.7015 9.33333 19.3333 9.33333H16.6667ZM14.2427 5.75736C13.9823 5.49701 13.9823 5.07489 14.2427 4.81455L16.1283 2.92893C16.3887 2.66859 16.8107 2.66859 17.0711 2.92893C17.3315 3.18928 17.3315 3.61139 17.0711 3.87175L15.1855 5.75736C14.9251 6.01771 14.5029 6.01771 14.2427 5.75736ZM10.6667 16.6667C10.6667 16.2985 10.3682 16 10 16C9.63181 16 9.33333 16.2985 9.33333 16.6667V19.3333C9.33333 19.7015 9.63181 20 10 20C10.3682 20 10.6667 19.7015 10.6667 19.3333V16.6667ZM14.2427 14.2427C14.5029 13.9823 14.9251 13.9823 15.1855 14.2427L17.0711 16.1283C17.3315 16.3887 17.3315 16.8107 17.0711 17.0711C16.8107 17.3315 16.3887 17.3315 16.1283 17.0711L14.2427 15.1855C13.9823 14.9251 13.9823 14.5029 14.2427 14.2427ZM7.33333 10C7.33333 8.52724 8.52724 7.33333 10 7.33333C11.4728 7.33333 12.6667 8.52724 12.6667 10C12.6667 11.4728 11.4728 12.6667 10 12.6667C8.52724 12.6667 7.33333 11.4728 7.33333 10ZM10 6C7.79087 6 6 7.79087 6 10C6 12.2091 7.79087 14 10 14C12.2091 14 14 12.2091 14 10C14 7.79087 12.2091 6 10 6Z"/>
</g>
<defs>
<clipPath id="clip0_2003_37">
<rect width="20" height="20" fill="white"/>
</clipPath>
</defs>
</svg>
